<?xml version="1.0" encoding="utf-8"?>
<!-- Generator: Adobe Illustrator 24.3.0, SVG Export Plug-In . SVG Version: 6.00 Build 0)  -->
<svg version="1.1" id="Layer_1" xmlns="http://www.w3.org/2000/svg" xmlns:xlink="http://www.w3.org/1999/xlink" x="0px" y="0px"
	 viewBox="0 0 1021.7 204.1" style="enable-background:new 0 0 1021.7 204.1;" xml:space="preserve">
<style type="text/css">
	.st0{fill:#19274D;}
	.st1{fill:#007BFF;}
</style>
<g>
	<path class="st0" d="M197.3,133.2l17.3-21.7c8.5,7.4,16.7,12.8,24.5,16.2c7.9,3.4,16.2,5.1,24.9,5.1c9,0,16.3-1.7,21.7-5
		c5.4-3.3,8.1-7.8,8.1-13.4c0-5-1.8-8.9-5.5-11.7c-3.7-2.8-9.8-4.9-18.5-6.3l-29-5c-12.5-2.1-22-6.5-28.5-13.1s-9.7-15.3-9.7-25.9
		c0-13.6,5.2-24.4,15.5-32.4c10.4-7.9,24.4-11.9,42.1-11.9c10.6,0,21.3,1.8,32,5.4c10.8,3.6,20.2,8.6,28.3,15l-16.3,22.5
		c-7.8-6-15.4-10.4-23-13.3c-7.5-2.9-15.2-4.3-23.2-4.3c-8.1,0-14.5,1.5-19.4,4.5c-4.9,3-7.3,7-7.3,12c0,4.5,1.6,7.9,4.8,10.4
		c3.2,2.5,8.6,4.3,16.1,5.4l27.5,4.6c14.5,2.4,25.4,7,32.7,13.9c7.3,6.9,11,16,11,27.2c0,14.2-5.6,25.5-16.8,34
		c-11.2,8.5-26.1,12.7-44.8,12.7c-11.7,0-23.2-2.2-34.5-6.7C216.1,147.4,206.1,141.2,197.3,133.2z"/>
	<path class="st0" d="M365.1,161.4l1.7-4L324.4,47.7h31.5l26.9,74.1l30.9-74.1h30.9L394.5,165c-5.6,13.1-12,22.4-19.4,28
		c-7.4,5.6-17,8.3-28.8,8.3c-2.5,0-4.9-0.1-7.2-0.3c-2.3-0.2-4.1-0.5-5.5-0.9v-24.6c1.4,0.3,2.9,0.5,4.4,0.6
		c1.5,0.1,3.4,0.2,5.6,0.2c5.1,0,9.5-1.3,13-3.8C360.2,170,363,166.3,365.1,161.4z"/>
	<path class="st0" d="M455.9,156.4V47.7h28.6v8.6c4.2-3.5,8.8-6.1,13.9-7.9c5.1-1.8,10.6-2.7,16.6-2.7c12.5,0,22.8,4,30.9,12.1
		c8.1,8.1,12.1,18.4,12.1,31.1v67.6h-28.6V93c0-6.8-2.1-12.3-6.2-16.5c-4.1-4.2-9.6-6.3-16.4-6.3c-4.7,0-9,0.9-12.8,2.8
		c-3.8,1.9-7,4.6-9.5,8v75.3H455.9z"/>
	<path class="st0" d="M677.1,142.8c-6.7,5.4-13.5,9.4-20.6,11.9c-7,2.5-14.9,3.8-23.5,3.8c-8.2,0-15.9-1.5-23.1-4.4
		c-7.2-2.9-13.4-6.9-18.6-11.9s-9.3-11-12.3-17.8c-3-6.9-4.5-14.3-4.5-22.2c0-7.8,1.4-15.1,4.3-22c2.9-6.9,6.8-12.9,11.8-17.9
		c5-5.1,11-9.1,17.8-12c6.9-2.9,14.2-4.4,22-4.4c7.7,0,14.8,1.5,21.4,4.5c6.6,3,12.3,7.1,17.1,12.2c4.8,5.1,8.6,11.3,11.3,18.5
		c2.7,7.2,4.1,14.9,4.1,23.3v7.5h-81c1.9,6.8,5.7,12.3,11.3,16.5c5.6,4.2,12.1,6.3,19.6,6.3c4.7,0,9.2-0.8,13.4-2.3
		c4.2-1.5,7.7-3.7,10.6-6.5L677.1,142.8z M630,69.4c-6.5,0-12.2,2-16.9,5.9c-4.7,4-8,9.3-9.8,16h53.2c-1.8-6.4-5.1-11.7-9.9-15.8
		C641.8,71.4,636.2,69.4,630,69.4z"/>
	<path class="st0" d="M702,156.4V47.7h28.6v11.9c3.5-4.7,7.7-8.3,12.6-10.7c4.9-2.4,10.4-3.7,16.4-3.7c2.8,0.1,5.1,0.4,7,0.7
		c1.9,0.3,3.5,0.9,4.9,1.8v25c-2.1-1-4.4-1.7-6.9-2.2c-2.5-0.5-5.1-0.7-7.7-0.7c-5.6,0-10.7,1.4-15.3,4.2c-4.7,2.8-8.3,6.8-11,12.1
		v70.3H702z"/>
	<path class="st0" d="M831.8,157c-7.7,0-14.9-1.5-21.6-4.4c-6.8-2.9-12.6-6.9-17.5-11.9c-4.9-5-8.8-10.9-11.7-17.6
		c-2.9-6.7-4.3-14-4.3-21.8c0-7.7,1.5-14.9,4.4-21.6C784,73,788,67.1,793,62.1c5-5,10.9-8.9,17.7-11.8c6.8-2.8,14.1-4.3,21.9-4.3
		c5.4,0,10.6,0.8,15.5,2.3c4.9,1.5,9.6,3.7,13.9,6.5v-7.1h28.2v108.7c0,14.3-4.6,25.4-13.9,33.2c-9.3,7.8-22.6,11.7-40,11.7
		c-8.3,0-16.4-0.8-24.1-2.5c-7.7-1.7-14.8-4.1-21.2-7.3l10-22.3c6,2.9,11.8,5.1,17.5,6.6c5.7,1.5,11.4,2.2,17.1,2.2
		c8.5,0,14.9-1.8,19.3-5.5c4.4-3.7,6.6-9.1,6.6-16.2v-9c-4.3,3.2-9,5.6-14.1,7.3C842.5,156.2,837.2,157,831.8,157z M804.9,101.3
		c0,8.8,3,16.2,9.1,22.3c6.1,6.1,13.5,9.2,22.2,9.2c5.1,0,9.9-0.9,14.2-2.6c4.3-1.7,8.1-4.1,11.3-7.2V80.2
		c-3.1-3.1-6.8-5.5-11.3-7.2c-4.5-1.7-9.1-2.6-14-2.6c-8.8,0-16.2,3-22.3,9C807.9,85.4,804.9,92.7,804.9,101.3z"/>
	<path class="st0" d="M942.2,161.4l1.7-4L901.5,47.7H933l26.9,74.1l30.9-74.1h30.9L971.6,165c-5.6,13.1-12,22.4-19.4,28
		c-7.4,5.6-17,8.3-28.8,8.3c-2.5,0-4.9-0.1-7.2-0.3c-2.3-0.2-4.1-0.5-5.5-0.9v-24.6c1.4,0.3,2.8,0.5,4.4,0.6
		c1.5,0.1,3.4,0.2,5.6,0.2c5.1,0,9.5-1.3,13-3.8C937.3,170,940.1,166.3,942.2,161.4z"/>
</g>
<path class="st1" d="M120,65c-3.2,0-6.1,0.9-8.6,2.5L9.2,127.1C3.8,129.6,0,135,0,141.3C0,150,7,157,15.7,157c0.2,0,0.3,0,0.5,0v0
	h103.1v0c0.2,0,0.5,0,0.7,0c8.8,0,16-7.1,16-15.9V80.9C136,72.1,128.8,65,120,65z"/>
<path class="st1" d="M16,94c3.2,0,6.1-0.9,8.6-2.5l102.2-59.6c5.4-2.5,9.2-7.9,9.2-14.2C136,9,128.9,2,120.3,2c-0.2,0-0.3,0-0.5,0v0
	H16.7v0c-0.2,0-0.5,0-0.7,0C7.1,2,0,9.1,0,17.9v60.2C0,86.9,7.1,94,16,94z"/>
<g>
</g>
<g>
</g>
<g>
</g>
<g>
</g>
<g>
</g>
<g>
</g>
<g>
</g>
<g>
</g>
<g>
</g>
<g>
</g>
<g>
</g>
<g>
</g>
<g>
</g>
<g>
</g>
<g>
</g>
</svg>
